<svg width="1008" height="1008" viewBox="0 0 1008 1008" fill="none" xmlns="http://www.w3.org/2000/svg">
<g clip-path="url(#clip0_4_725)">
<rect width="1008" height="1008" rx="504" fill="#A3A3A3"/>
<path d="M508.453 1069.48C506.97 1069.49 505.486 1069.5 504 1069.5C502.514 1069.5 501.029 1069.49 499.546 1069.48L500.497 946.486C501.664 946.495 502.831 946.5 504 946.5C505.169 946.5 506.337 946.495 507.503 946.486L508.453 1069.48ZM483.094 946.016C485.402 946.123 487.714 946.212 490.032 946.284L486.23 1069.23C483.279 1069.13 480.333 1069.02 477.393 1068.88L483.094 946.016ZM530.607 1068.88C527.667 1069.02 524.721 1069.13 521.77 1069.23L517.967 946.284C520.285 946.212 522.598 946.123 524.906 946.016L530.607 1068.88ZM465.717 944.87C468.023 945.067 470.335 945.247 472.652 945.409L464.082 1068.11C461.127 1067.9 458.177 1067.67 455.234 1067.42L465.717 944.87ZM552.766 1067.42C549.823 1067.67 546.873 1067.9 543.918 1068.11L535.348 945.409C537.664 945.247 539.976 945.068 542.282 944.871L552.766 1067.42ZM448.426 943.051C450.726 943.339 453.032 943.608 455.344 943.86L441.991 1066.13C439.039 1065.81 436.093 1065.47 433.154 1065.1L448.426 943.051ZM574.845 1065.1C571.906 1065.47 568.96 1065.81 566.008 1066.13L552.656 943.86C554.968 943.608 557.274 943.339 559.574 943.051L574.845 1065.1ZM431.238 940.557C433.524 940.934 435.816 941.294 438.113 941.637L419.975 1063.29C417.037 1062.85 414.106 1062.39 411.184 1061.91L431.238 940.557ZM596.815 1061.91C593.892 1062.39 590.962 1062.85 588.024 1063.29L569.886 941.637C572.183 941.294 574.475 940.934 576.761 940.557L596.815 1061.91ZM414.176 937.39C416.436 937.855 418.703 938.304 420.976 938.735L398.056 1059.58C395.148 1059.03 392.248 1058.46 389.355 1057.86L414.176 937.39ZM618.644 1057.86C615.751 1058.46 612.851 1059.03 609.943 1059.58L587.024 938.735C589.297 938.304 591.563 937.856 593.823 937.391L618.644 1057.86ZM397.234 933.549C399.476 934.104 401.726 934.642 403.981 935.163L376.307 1055.01C373.419 1054.34 370.54 1053.65 367.67 1052.94L397.234 933.549ZM640.33 1052.94C637.46 1053.65 634.58 1054.34 631.692 1055.01L604.019 935.163C606.274 934.642 608.523 934.104 610.766 933.549L640.33 1052.94ZM380.465 929.042C382.686 929.686 384.916 930.314 387.151 930.925L354.76 1049.58C351.897 1048.8 349.044 1048 346.199 1047.17L380.465 929.042ZM661.801 1047.17C658.956 1048 656.102 1048.8 653.239 1049.58L620.849 930.925C623.084 930.314 625.314 929.687 627.535 929.043L661.801 1047.17ZM363.894 923.878C366.09 924.611 368.295 925.326 370.507 926.025L333.447 1043.31C330.615 1042.41 327.792 1041.5 324.979 1040.56L363.894 923.878ZM683.02 1040.56C680.207 1041.5 677.384 1042.41 674.552 1043.31L637.493 926.025C639.705 925.327 641.909 924.61 644.105 923.878L683.02 1040.56ZM347.543 918.063C349.707 918.882 351.88 919.684 354.061 920.469L312.389 1036.19C309.597 1035.19 306.815 1034.16 304.044 1033.11L347.543 918.063ZM703.955 1033.11C701.184 1034.16 698.403 1035.19 695.611 1036.19L653.939 920.469C656.12 919.684 658.293 918.882 660.457 918.063L703.955 1033.11ZM331.435 911.606C333.562 912.508 335.698 913.393 337.842 914.263L291.625 1028.25C288.881 1027.14 286.147 1026 283.424 1024.85L331.435 911.606ZM724.576 1024.85C721.853 1026 719.12 1027.14 716.375 1028.25L670.158 914.263C672.302 913.393 674.438 912.508 676.565 911.606L724.576 1024.85ZM315.579 904.512C317.671 905.498 319.773 906.468 321.883 907.422L271.198 1019.49C268.499 1018.27 265.81 1017.03 263.134 1015.77L315.579 904.512ZM744.866 1015.77C742.189 1017.03 739.501 1018.27 736.801 1019.49L686.117 907.422C688.227 906.468 690.328 905.498 692.42 904.512L744.866 1015.77ZM300.017 896.796C302.07 897.865 304.133 898.919 306.205 899.956L251.141 1009.94C248.49 1008.62 245.851 1007.27 243.225 1005.9L300.017 896.796ZM764.774 1005.9C762.148 1007.27 759.509 1008.62 756.858 1009.94L701.795 899.956C703.867 898.919 705.93 897.865 707.983 896.796L764.774 1005.9ZM284.768 888.474C286.779 889.624 288.801 890.758 290.832 891.877L231.48 999.61C228.884 998.18 226.299 996.729 223.728 995.259L284.768 888.474ZM784.272 995.259C781.701 996.729 779.116 998.18 776.52 999.61L717.168 891.877C719.199 890.758 721.221 889.624 723.232 888.474L784.272 995.259ZM269.855 879.557C271.821 880.785 273.797 881.997 275.782 883.195L212.242 988.513C209.705 986.982 207.18 985.432 204.669 983.862L269.855 879.557ZM803.331 983.862C800.82 985.432 798.295 986.982 795.758 988.513L732.218 883.195C734.203 881.997 736.179 880.785 738.145 879.557L803.331 983.862ZM255.302 870.06C257.216 871.363 259.142 872.652 261.078 873.926L193.454 976.668C190.981 975.04 188.522 973.394 186.076 971.729L255.302 870.06ZM821.924 971.729C819.478 973.394 817.019 975.04 814.546 976.668L746.922 873.926C748.858 872.652 750.783 871.363 752.697 870.06L821.924 971.729ZM241.126 859.995C242.989 861.373 244.862 862.737 246.747 864.086L175.15 964.1C172.744 962.377 170.35 960.636 167.972 958.876L241.126 859.995ZM840.027 958.876C837.649 960.635 835.256 962.377 832.85 964.1L761.253 864.086C763.138 862.737 765.011 861.373 766.874 859.995L840.027 958.876ZM227.352 849.381C229.16 850.831 230.98 852.268 232.812 853.69L157.356 950.828C155.019 949.012 152.696 947.178 150.388 945.326L227.352 849.381ZM857.612 945.326C855.304 947.178 852.981 949.012 850.644 950.828L775.188 853.691C777.02 852.269 778.84 850.831 780.648 849.381L857.612 945.326ZM214.002 838.236C215.753 839.757 217.515 841.265 219.29 842.758L140.098 936.872C137.833 934.966 135.583 933.043 133.349 931.103L214.002 838.236ZM874.651 931.103C872.417 933.043 870.167 934.966 867.902 936.872L788.71 842.758C790.485 841.265 792.247 839.757 793.998 838.236L874.651 931.103ZM201.097 826.579C202.787 828.167 204.49 829.741 206.205 831.303L123.398 922.254C121.21 920.261 119.037 918.252 116.88 916.226L201.097 826.579ZM891.12 916.226C888.963 918.252 886.79 920.261 884.602 922.254L801.795 831.303C803.51 829.741 805.213 828.167 806.903 826.579L891.12 916.226ZM188.655 814.426C190.282 816.078 191.922 817.718 193.574 819.345L107.282 906.995C105.174 904.919 103.081 902.826 101.005 900.718L188.655 814.426ZM906.995 900.718C904.919 902.826 902.826 904.919 900.718 906.995L814.426 819.345C816.078 817.718 817.718 816.078 819.345 814.426L906.995 900.718ZM176.697 801.795C178.259 803.51 179.833 805.213 181.421 806.903L91.7744 891.12C89.7482 888.963 87.7386 886.79 85.7461 884.602L176.697 801.795ZM922.254 884.602C920.261 886.79 918.252 888.963 916.226 891.12L826.579 806.903C828.167 805.213 829.741 803.51 831.303 801.795L922.254 884.602ZM165.242 788.71C166.735 790.485 168.243 792.247 169.764 793.998L76.8975 874.651C74.957 872.417 73.0338 870.167 71.1279 867.902L165.242 788.71ZM936.872 867.902C934.966 870.167 933.043 872.417 931.103 874.651L838.236 793.998C839.757 792.247 841.265 790.485 842.758 788.71L936.872 867.902ZM154.309 775.188C155.731 777.02 157.169 778.84 158.619 780.648L62.6738 857.612C60.8223 855.304 58.9878 852.981 57.1719 850.644L154.309 775.188ZM950.828 850.644C949.012 852.981 947.178 855.304 945.326 857.612L849.381 780.648C850.831 778.84 852.268 777.02 853.69 775.188L950.828 850.644ZM964.1 832.85C962.377 835.256 960.636 837.65 958.876 840.028L859.995 766.874C861.373 765.011 862.737 763.138 864.086 761.253L964.1 832.85ZM143.914 761.253C145.263 763.138 146.627 765.011 148.005 766.874L49.124 840.027C47.3646 837.649 45.6233 835.256 43.9004 832.85L143.914 761.253ZM134.074 746.922C135.348 748.858 136.637 750.783 137.94 752.697L36.2715 821.924C34.6063 819.478 32.9597 817.019 31.332 814.546L134.074 746.922ZM976.668 814.546C975.04 817.019 973.394 819.478 971.729 821.924L870.06 752.698C871.363 750.784 872.652 748.858 873.926 746.922L976.668 814.546ZM124.805 732.218C126.003 734.203 127.215 736.179 128.443 738.145L24.1377 803.331C22.5683 800.82 21.0182 798.295 19.4873 795.758L124.805 732.218ZM988.513 795.758C986.982 798.295 985.432 800.82 983.862 803.331L879.557 738.145C880.785 736.179 881.997 734.203 883.195 732.218L988.513 795.758ZM116.123 717.168C117.242 719.199 118.376 721.221 119.526 723.232L12.7412 784.272C11.2712 781.701 9.82031 779.116 8.38965 776.52L116.123 717.168ZM999.61 776.52C998.18 779.116 996.729 781.701 995.259 784.272L888.474 723.232C889.624 721.221 890.758 719.199 891.877 717.168L999.61 776.52ZM1009.94 756.859C1008.62 759.51 1007.27 762.149 1005.9 764.775L896.796 707.983C897.865 705.93 898.919 703.867 899.956 701.795L1009.94 756.859ZM108.044 701.795C109.081 703.867 110.135 705.93 111.204 707.983L2.09961 764.774C0.732478 762.148 -0.615361 759.509 -1.94238 756.858L108.044 701.795ZM100.578 686.117C101.532 688.227 102.502 690.328 103.488 692.42L-7.76953 744.866C-9.03132 742.189 -10.2732 739.501 -11.4941 736.801L100.578 686.117ZM1019.49 736.802C1018.27 739.501 1017.03 742.19 1015.77 744.866L904.512 692.421C905.498 690.329 906.468 688.227 907.422 686.117L1019.49 736.802ZM93.7373 670.158C94.6066 672.302 95.4917 674.438 96.3936 676.565L-16.8486 724.576C-18.003 721.853 -19.1372 719.12 -20.25 716.375L93.7373 670.158ZM1028.25 716.375C1027.14 719.119 1026 721.853 1024.85 724.576L911.606 676.565C912.508 674.438 913.393 672.302 914.263 670.158L1028.25 716.375ZM1036.19 695.611C1035.19 698.403 1034.16 701.185 1033.11 703.956L918.063 660.457C918.882 658.293 919.684 656.12 920.469 653.939L1036.19 695.611ZM87.5312 653.939C88.3164 656.12 89.1182 658.293 89.9365 660.457L-25.1143 703.955C-26.1619 701.184 -27.1891 698.403 -28.1943 695.611L87.5312 653.939ZM1043.31 674.553C1042.41 677.385 1041.5 680.208 1040.56 683.021L923.878 644.106C924.611 641.91 925.326 639.705 926.025 637.493L1043.31 674.553ZM81.9746 637.493C82.6735 639.705 83.3895 641.909 84.1221 644.105L-32.5605 683.02C-33.4986 680.207 -34.4147 677.384 -35.3096 674.552L81.9746 637.493ZM77.0752 620.849C77.6855 623.084 78.3126 625.314 78.957 627.535L-39.1729 661.801C-39.998 658.956 -40.8015 656.102 -41.583 653.239L77.0752 620.849ZM1049.58 653.24C1048.8 656.103 1048 658.956 1047.17 661.801L929.042 627.535C929.686 625.314 930.314 623.084 930.925 620.849L1049.58 653.24ZM72.8369 604.019C73.3578 606.274 73.896 608.523 74.4512 610.766L-44.9434 640.33C-45.6541 637.46 -46.343 634.58 -47.0098 631.692L72.8369 604.019ZM1055.01 631.693C1054.34 634.581 1053.65 637.46 1052.94 640.33L933.549 610.766C934.104 608.524 934.642 606.274 935.163 604.019L1055.01 631.693ZM1059.58 609.944C1059.03 612.852 1058.46 615.752 1057.86 618.645L937.39 593.824C937.855 591.564 938.304 589.297 938.735 587.024L1059.58 609.944ZM69.2646 587.024C69.6957 589.297 70.1438 591.563 70.6094 593.823L-49.8594 618.644C-50.4552 615.751 -51.0296 612.851 -51.5811 609.943L69.2646 587.024ZM1063.29 588.025C1062.85 590.963 1062.39 593.894 1061.91 596.816L940.557 576.762C940.934 574.476 941.294 572.184 941.637 569.887L1063.29 588.025ZM66.3633 569.886C66.7058 572.183 67.0657 574.475 67.4434 576.761L-53.9102 596.815C-54.3932 593.892 -54.854 590.962 -55.292 588.024L66.3633 569.886ZM1066.13 566.009C1065.81 568.961 1065.47 571.907 1065.1 574.846L943.051 559.574C943.339 557.274 943.608 554.968 943.86 552.656L1066.13 566.009ZM64.1396 552.656C64.3921 554.968 64.6614 557.274 64.9492 559.574L-57.0986 574.845C-57.4664 571.906 -57.8114 568.96 -58.1338 566.008L64.1396 552.656ZM62.5908 535.348C62.7526 537.664 62.9317 539.976 63.1289 542.282L-59.4229 552.766C-59.6746 549.823 -59.904 546.873 -60.1104 543.918L62.5908 535.348ZM1068.11 543.918C1067.9 546.873 1067.67 549.823 1067.42 552.766L944.87 542.283C945.067 539.977 945.247 537.665 945.409 535.348L1068.11 543.918ZM61.7158 517.967C61.7875 520.285 61.8773 522.598 61.9844 524.906L-60.8838 530.607C-61.0202 527.667 -61.1343 524.721 -61.2256 521.77L61.7158 517.967ZM1069.23 521.77C1069.13 524.721 1069.02 527.667 1068.88 530.607L946.016 524.906C946.123 522.598 946.212 520.286 946.284 517.968L1069.23 521.77ZM946.5 504C946.5 502.831 946.495 501.663 946.486 500.497L1069.48 499.547C1069.49 501.03 1069.5 502.514 1069.5 504C1069.5 505.486 1069.49 506.971 1069.48 508.454L946.486 507.503C946.495 506.336 946.5 505.169 946.5 504ZM-61.5 504C-61.5 502.514 -61.4939 501.029 -61.4824 499.546L61.5137 500.497C61.5047 501.664 61.5 502.831 61.5 504C61.5 505.169 61.5047 506.337 61.5137 507.503L-61.4824 508.453C-61.4939 506.97 -61.5 505.486 -61.5 504ZM1068.88 477.393C1069.02 480.333 1069.13 483.279 1069.23 486.23L946.284 490.033C946.212 487.715 946.123 485.402 946.016 483.094L1068.88 477.393ZM61.9844 483.094C61.8773 485.402 61.7875 487.714 61.7158 490.032L-61.2256 486.23C-61.1343 483.279 -61.0202 480.333 -60.8838 477.393L61.9844 483.094ZM63.1299 465.717C62.9326 468.023 62.7527 470.335 62.5908 472.652L-60.1104 464.082C-59.9039 461.127 -59.6746 458.177 -59.4229 455.234L63.1299 465.717ZM1067.42 455.234C1067.67 458.177 1067.9 461.127 1068.11 464.082L945.409 472.652C945.247 470.336 945.068 468.024 944.871 465.718L1067.42 455.234ZM64.9492 448.426C64.6614 450.726 64.3921 453.032 64.1396 455.344L-58.1338 441.991C-57.8114 439.039 -57.4664 436.093 -57.0986 433.154L64.9492 448.426ZM1065.1 433.155C1065.47 436.094 1065.81 439.04 1066.13 441.992L943.86 455.344C943.608 453.032 943.339 450.726 943.051 448.426L1065.1 433.155ZM1061.91 411.185C1062.39 414.108 1062.85 417.038 1063.29 419.976L941.637 438.114C941.294 435.817 940.934 433.525 940.557 431.239L1061.91 411.185ZM67.4434 431.238C67.0657 433.524 66.7059 435.816 66.3633 438.113L-55.292 419.975C-54.854 417.037 -54.3932 414.106 -53.9102 411.184L67.4434 431.238ZM70.6104 414.176C70.1447 416.436 69.6957 418.703 69.2646 420.976L-51.5811 398.056C-51.0296 395.148 -50.4553 392.248 -49.8594 389.355L70.6104 414.176ZM1057.86 389.356C1058.46 392.249 1059.03 395.149 1059.58 398.057L938.735 420.976C938.304 418.703 937.856 416.437 937.391 414.177L1057.86 389.356ZM74.4512 397.234C73.896 399.476 73.3578 401.726 72.8369 403.981L-47.0098 376.307C-46.343 373.419 -45.6541 370.54 -44.9434 367.67L74.4512 397.234ZM1052.94 367.67C1053.65 370.54 1054.34 373.42 1055.01 376.308L935.163 403.981C934.642 401.726 934.104 399.477 933.549 397.234L1052.94 367.67ZM78.958 380.465C78.3136 382.686 77.6855 384.916 77.0752 387.151L-41.583 354.76C-40.8016 351.897 -39.9979 349.044 -39.1729 346.199L78.958 380.465ZM1047.17 346.199C1048 349.044 1048.8 351.898 1049.58 354.761L930.925 387.151C930.314 384.916 929.687 382.686 929.043 380.465L1047.17 346.199ZM84.1221 363.894C83.3895 366.09 82.6735 368.295 81.9746 370.507L-35.3096 333.447C-34.4146 330.615 -33.4976 327.792 -32.5596 324.979L84.1221 363.894ZM1040.56 324.98C1041.5 327.793 1042.41 330.616 1043.31 333.448L926.025 370.507C925.327 368.295 924.61 366.091 923.878 363.895L1040.56 324.98ZM89.9365 347.543C89.1182 349.707 88.3164 351.88 87.5312 354.061L-28.1943 312.389C-27.189 309.597 -26.162 306.815 -25.1143 304.044L89.9365 347.543ZM1033.11 304.045C1034.16 306.816 1035.19 309.597 1036.19 312.389L920.469 354.061C919.684 351.88 918.882 349.707 918.063 347.543L1033.11 304.045ZM96.3936 331.435C95.4917 333.562 94.6066 335.698 93.7373 337.842L-20.25 291.625C-19.1372 288.881 -18.003 286.147 -16.8486 283.424L96.3936 331.435ZM1024.85 283.424C1026 286.147 1027.14 288.88 1028.25 291.625L914.263 337.842C913.393 335.698 912.508 333.562 911.606 331.435L1024.85 283.424ZM103.488 315.579C102.502 317.671 101.532 319.773 100.578 321.883L-11.4941 271.198C-10.2733 268.499 -9.03127 265.81 -7.76953 263.134L103.488 315.579ZM1015.77 263.134C1017.03 265.811 1018.27 268.499 1019.49 271.199L907.422 321.883C906.468 319.773 905.498 317.672 904.512 315.58L1015.77 263.134ZM111.204 300.017C110.135 302.07 109.081 304.133 108.044 306.205L-1.94238 251.141C-0.615354 248.49 0.732471 245.851 2.09961 243.225L111.204 300.017ZM1005.9 243.226C1007.27 245.852 1008.62 248.491 1009.94 251.142L899.956 306.205C898.919 304.133 897.865 302.07 896.796 300.017L1005.9 243.226ZM119.526 284.768C118.376 286.779 117.242 288.801 116.123 290.832L8.38965 231.48C9.82031 228.884 11.2712 226.299 12.7412 223.728L119.526 284.768ZM995.259 223.728C996.729 226.299 998.18 228.884 999.61 231.48L891.877 290.832C890.758 288.801 889.624 286.779 888.474 284.768L995.259 223.728ZM128.443 269.855C127.215 271.821 126.003 273.797 124.805 275.782L19.4873 212.242C21.0182 209.705 22.5684 207.18 24.1377 204.669L128.443 269.855ZM983.862 204.669C985.432 207.18 986.982 209.705 988.513 212.242L883.195 275.782C881.997 273.797 880.785 271.821 879.557 269.855L983.862 204.669ZM137.94 255.302C136.637 257.216 135.348 259.142 134.074 261.078L31.332 193.454C32.9597 190.981 34.6064 188.522 36.2715 186.076L137.94 255.302ZM971.729 186.076C973.394 188.522 975.04 190.981 976.668 193.454L873.926 261.078C872.652 259.142 871.363 257.217 870.06 255.303L971.729 186.076ZM148.005 241.126C146.627 242.989 145.263 244.862 143.914 246.747L43.9004 175.15C45.6234 172.744 47.3645 170.35 49.124 167.972L148.005 241.126ZM958.876 167.973C960.635 170.351 962.377 172.744 964.1 175.15L864.086 246.747C862.737 244.862 861.373 242.989 859.995 241.126L958.876 167.973ZM158.619 227.352C157.169 229.16 155.732 230.98 154.31 232.812L57.1719 157.356C58.9878 155.019 60.8223 152.696 62.6738 150.388L158.619 227.352ZM945.326 150.388C947.178 152.696 949.012 155.019 950.828 157.356L853.691 232.812C852.269 230.98 850.831 229.16 849.381 227.352L945.326 150.388ZM169.764 214.002C168.243 215.753 166.735 217.515 165.242 219.29L71.1279 140.098C73.0338 137.833 74.957 135.583 76.8975 133.349L169.764 214.002ZM931.103 133.349C933.043 135.583 934.966 137.833 936.872 140.098L842.758 219.29C841.265 217.515 839.757 215.753 838.236 214.002L931.103 133.349ZM181.421 201.097C179.833 202.787 178.259 204.49 176.697 206.205L85.7461 123.398C87.7387 121.21 89.7482 119.037 91.7744 116.88L181.421 201.097ZM916.226 116.88C918.252 119.037 920.261 121.21 922.254 123.398L831.303 206.205C829.741 204.49 828.167 202.787 826.579 201.097L916.226 116.88ZM193.574 188.655C191.922 190.282 190.282 191.922 188.655 193.574L101.005 107.282C103.081 105.174 105.174 103.081 107.282 101.005L193.574 188.655ZM900.718 101.005C902.826 103.081 904.919 105.174 906.995 107.282L819.345 193.574C817.718 191.922 816.078 190.282 814.426 188.655L900.718 101.005ZM206.205 176.697C204.49 178.259 202.787 179.833 201.097 181.421L116.88 91.7744C119.037 89.7482 121.21 87.7386 123.398 85.7461L206.205 176.697ZM884.602 85.7461C886.79 87.7387 888.963 89.7482 891.12 91.7744L806.903 181.421C805.213 179.833 803.51 178.259 801.795 176.697L884.602 85.7461ZM219.29 165.242C217.515 166.735 215.753 168.243 214.002 169.764L133.349 76.8975C135.583 74.957 137.833 73.0338 140.098 71.1279L219.29 165.242ZM867.902 71.1279C870.167 73.0338 872.417 74.957 874.651 76.8975L793.998 169.764C792.247 168.243 790.485 166.735 788.71 165.242L867.902 71.1279ZM232.812 154.309C230.98 155.731 229.16 157.169 227.352 158.619L150.388 62.6738C152.696 60.8223 155.019 58.9878 157.356 57.1719L232.812 154.309ZM850.644 57.1719C852.981 58.9878 855.304 60.8223 857.612 62.6738L780.648 158.619C778.84 157.169 777.02 155.732 775.188 154.31L850.644 57.1719ZM246.747 143.914C244.862 145.263 242.989 146.627 241.126 148.005L167.973 49.124C170.351 47.3646 172.744 45.6233 175.15 43.9004L246.747 143.914ZM832.85 43.9004C835.256 45.6234 837.65 47.3645 840.028 49.124L766.874 148.005C765.011 146.627 763.138 145.263 761.253 143.914L832.85 43.9004ZM261.078 134.074C259.142 135.348 257.217 136.637 255.303 137.94L186.076 36.2715C188.522 34.6063 190.981 32.9597 193.454 31.332L261.078 134.074ZM814.546 31.332C817.019 32.9597 819.478 34.6064 821.924 36.2715L752.698 137.94C750.784 136.637 748.858 135.348 746.922 134.074L814.546 31.332ZM275.782 124.805C273.797 126.003 271.821 127.215 269.855 128.443L204.669 24.1377C207.18 22.5683 209.705 21.0182 212.242 19.4873L275.782 124.805ZM795.758 19.4873C798.295 21.0182 800.82 22.5684 803.331 24.1377L738.145 128.443C736.179 127.215 734.203 126.003 732.218 124.805L795.758 19.4873ZM290.832 116.123C288.801 117.242 286.779 118.376 284.768 119.526L223.728 12.7412C226.299 11.2712 228.884 9.82031 231.48 8.38965L290.832 116.123ZM776.52 8.38965C779.116 9.82031 781.701 11.2712 784.272 12.7412L723.232 119.526C721.221 118.376 719.199 117.242 717.168 116.123L776.52 8.38965ZM306.205 108.044C304.133 109.081 302.07 110.135 300.017 111.204L243.226 2.09961C245.852 0.732478 248.491 -0.615361 251.142 -1.94238L306.205 108.044ZM756.859 -1.94238C759.51 -0.615354 762.149 0.732471 764.775 2.09961L707.983 111.204C705.93 110.135 703.867 109.081 701.795 108.044L756.859 -1.94238ZM321.883 100.578C319.773 101.532 317.672 102.502 315.58 103.488L263.134 -7.76953C265.811 -9.03132 268.499 -10.2732 271.199 -11.4941L321.883 100.578ZM736.802 -11.4941C739.501 -10.2733 742.19 -9.03127 744.866 -7.76953L692.421 103.488C690.329 102.502 688.227 101.532 686.117 100.578L736.802 -11.4941ZM337.842 93.7373C335.698 94.6066 333.562 95.4917 331.435 96.3936L283.424 -16.8486C286.147 -18.003 288.88 -19.1372 291.625 -20.25L337.842 93.7373ZM716.375 -20.25C719.119 -19.1372 721.853 -18.003 724.576 -16.8486L676.565 96.3936C674.438 95.4917 672.302 94.6066 670.158 93.7373L716.375 -20.25ZM354.061 87.5312C351.88 88.3164 349.707 89.1182 347.543 89.9365L304.045 -25.1143C306.816 -26.1619 309.597 -27.1891 312.389 -28.1943L354.061 87.5312ZM695.611 -28.1943C698.403 -27.189 701.185 -26.162 703.956 -25.1143L660.457 89.9365C658.293 89.1182 656.12 88.3164 653.939 87.5312L695.611 -28.1943ZM370.507 81.9746C368.295 82.6735 366.091 83.3895 363.895 84.1221L324.98 -32.5605C327.793 -33.4986 330.616 -34.4147 333.448 -35.3096L370.507 81.9746ZM674.553 -35.3096C677.385 -34.4146 680.208 -33.4976 683.021 -32.5596L644.106 84.1221C641.91 83.3895 639.705 82.6735 637.493 81.9746L674.553 -35.3096ZM653.24 -41.583C656.103 -40.8016 658.956 -39.9979 661.801 -39.1729L627.535 78.958C625.314 78.3136 623.084 77.6855 620.849 77.0752L653.24 -41.583ZM387.151 77.0752C384.916 77.6855 382.686 78.3126 380.465 78.957L346.199 -39.1729C349.044 -39.998 351.898 -40.8015 354.761 -41.583L387.151 77.0752ZM403.981 72.8369C401.726 73.3578 399.477 73.896 397.234 74.4512L367.67 -44.9434C370.54 -45.6541 373.42 -46.343 376.308 -47.0098L403.981 72.8369ZM631.693 -47.0098C634.581 -46.343 637.46 -45.6541 640.33 -44.9434L610.766 74.4512C608.524 73.896 606.274 73.3578 604.019 72.8369L631.693 -47.0098ZM609.944 -51.5811C612.852 -51.0296 615.752 -50.4553 618.645 -49.8594L593.824 70.6104C591.564 70.1447 589.297 69.6957 587.024 69.2646L609.944 -51.5811ZM420.976 69.2646C418.703 69.6957 416.437 70.1438 414.177 70.6094L389.356 -49.8594C392.249 -50.4552 395.149 -51.0296 398.057 -51.5811L420.976 69.2646ZM438.114 66.3633C435.817 66.7058 433.525 67.0657 431.239 67.4434L411.185 -53.9102C414.108 -54.3932 417.038 -54.854 419.976 -55.292L438.114 66.3633ZM588.025 -55.292C590.963 -54.854 593.894 -54.3932 596.816 -53.9102L576.762 67.4434C574.476 67.0657 572.184 66.7059 569.887 66.3633L588.025 -55.292ZM455.344 64.1396C453.032 64.3921 450.726 64.6614 448.426 64.9492L433.155 -57.0986C436.094 -57.4664 439.04 -57.8114 441.992 -58.1338L455.344 64.1396ZM566.009 -58.1338C568.961 -57.8114 571.907 -57.4664 574.846 -57.0986L559.574 64.9492C557.274 64.6614 554.968 64.3921 552.656 64.1396L566.009 -58.1338ZM543.918 -60.1104C546.873 -59.9039 549.823 -59.6746 552.766 -59.4229L542.283 63.1299C539.977 62.9326 537.665 62.7527 535.348 62.5908L543.918 -60.1104ZM472.652 62.5908C470.336 62.7526 468.024 62.9317 465.718 63.1289L455.234 -59.4229C458.177 -59.6746 461.127 -59.904 464.082 -60.1104L472.652 62.5908ZM490.033 61.7158C487.715 61.7875 485.402 61.8773 483.094 61.9844L477.393 -60.8838C480.333 -61.0202 483.279 -61.1343 486.23 -61.2256L490.033 61.7158ZM521.77 -61.2256C524.721 -61.1343 527.667 -61.0202 530.607 -60.8838L524.906 61.9844C522.598 61.8773 520.286 61.7875 517.968 61.7158L521.77 -61.2256ZM504 -61.5C505.486 -61.5 506.971 -61.4939 508.454 -61.4824L507.503 61.5137C506.336 61.5047 505.169 61.5 504 61.5C502.831 61.5 501.663 61.5047 500.497 61.5137L499.547 -61.4824C501.03 -61.4939 502.514 -61.5 504 -61.5Z" fill="white"/>
<path d="M683.756 1022.87C664.771 1053.67 624.419 1063.24 593.626 1044.26C562.833 1025.27 553.26 984.919 572.244 954.126L683.756 1022.87ZM412.126 172.695C528.971 58.6313 723.528 84.9573 802.915 229.852L809.18 241.303C840.556 298.72 872.454 358.264 897.115 406.974C910.217 432.852 921.67 456.444 929.984 475.359C934.107 484.74 937.871 493.9 940.726 502.108C942.585 507.451 947.5 521.473 947.5 536.501C947.5 551.445 942.716 564.917 940.84 570.177C938.061 577.965 934.449 586.399 930.589 594.787C922.802 611.71 912.136 632.471 899.991 655.04C875.586 700.392 843.339 756.485 811.463 810.699C779.508 865.048 747.591 918.074 723.687 957.475C711.728 977.186 701.76 993.513 694.775 1004.92C691.283 1010.62 688.536 1015.1 686.658 1018.16C685.719 1019.68 684.997 1020.86 684.509 1021.65C684.264 1022.05 684.077 1022.35 683.951 1022.56C683.888 1022.66 683.84 1022.74 683.807 1022.79C683.791 1022.82 683.779 1022.84 683.77 1022.85C683.766 1022.86 683.762 1022.86 683.76 1022.87C683.74 1022.86 682.787 1022.28 628 988.5C573.185 954.707 572.26 954.136 572.246 954.124C572.248 954.121 572.249 954.118 572.253 954.112C572.259 954.101 572.271 954.084 572.285 954.061C572.314 954.014 572.358 953.942 572.417 953.847C572.535 953.655 572.713 953.366 572.949 952.982C573.421 952.215 574.125 951.069 575.047 949.57C576.89 946.571 579.6 942.156 583.053 936.517C589.959 925.237 599.834 909.064 611.687 889.525C635.408 850.427 666.992 797.953 698.537 744.302C730.16 690.517 761.414 636.11 784.634 592.962C796.301 571.281 805.479 553.292 811.583 540.027C812.256 538.564 812.868 537.204 813.427 535.946C812.467 533.631 811.349 531.011 810.057 528.072C803.165 512.391 792.956 491.263 780.24 466.146C756.493 419.242 725.367 361.111 694.25 304.167L688.028 292.797C651.238 225.65 560.344 211.877 504.275 265.814L502.957 267.102C427.322 342.042 480.391 471.001 586.864 471.001H628L628.846 471.006C664.631 471.459 693.5 500.609 693.5 536.501C693.5 572.393 664.631 601.542 628.846 601.995L628 602.001H586.864C363.39 602.001 252.008 331.333 410.755 174.044L412.126 172.695Z" fill="black"/>
<path d="M929 988.753C929 1174.74 738.747 1325.51 504.058 1325.51C269.369 1325.51 79.1162 1174.74 79.1162 988.753C79.1162 802.769 269.369 652 504.058 652C738.747 652 929 802.769 929 988.753Z" fill="black"/>
<path d="M534.506 778.749C541.272 773.506 551.008 774.739 556.252 781.505C561.496 788.271 560.262 798.008 553.496 803.251L533.384 818.838C531.317 820.439 531.317 823.56 533.384 825.161L553.497 840.749C560.263 845.993 561.497 855.73 556.253 862.496C551.01 869.261 541.273 870.495 534.507 865.251L506.452 843.508C505.009 842.39 502.993 842.39 501.551 843.508L473.496 865.251C466.73 870.495 456.994 869.261 451.75 862.496C446.507 855.729 447.74 845.993 454.506 840.749L474.619 825.161C476.685 823.56 476.685 820.439 474.619 818.838L454.507 803.251C447.741 798.007 446.508 788.271 451.751 781.505C456.995 774.739 466.731 773.506 473.497 778.749L501.551 800.491C502.993 801.609 505.009 801.609 506.452 800.491L534.506 778.749Z" fill="#A3A3A3"/>
<path d="M298.203 315.268L263.821 402.864L78.5508 330.143L98.191 280.105L238.944 335.352L253.686 297.794L298.203 315.268Z" fill="black"/>
<path d="M261.703 410.388L252.326 463.318L56.3467 428.596L65.7243 375.666L261.703 410.388Z" fill="black"/>
<path d="M250.87 453.209L254.978 508.616L230.077 514.469L232.755 550.592L258.275 553.095L262.383 608.502L60.3604 575.523L55.5 509.961L250.87 453.209ZM187.992 523.922L165.11 529.109C165.031 529.201 163.887 529.458 161.677 529.88C159.805 530.191 152.415 531.644 139.509 534.238C138.065 534.517 136.11 534.878 133.643 535.319C131.091 535.767 127.903 536.348 124.078 537.062L105.433 540.125C107.246 540.163 109.279 540.271 111.532 540.448C113.78 540.54 116.244 540.659 118.927 540.805C124.285 541.011 128.002 541.166 130.077 541.271C132.153 541.376 133.409 541.455 133.844 541.509L158.16 543.455L189.67 546.548L187.992 523.922Z" fill="black"/>
<path d="M265.769 607.41L284.031 657.967L141.697 709.381L151.77 737.266L106.911 753.47L68.1094 646.052L112.968 629.849L123.435 658.825L265.769 607.41Z" fill="black"/>
<path d="M984 504C984 238.903 769.097 24 504 24C238.903 24 24 238.903 24 504C24 769.097 238.903 984 504 984V1008C225.648 1008 0 782.352 0 504C0 225.648 225.648 0 504 0C782.352 0 1008 225.648 1008 504C1008 782.352 782.352 1008 504 1008V984C769.097 984 984 769.097 984 504Z" fill="white"/>
<g style="mix-blend-mode:hard-light">
<path d="M1008 504C1008 782.352 782.352 1008 504 1008C225.648 1008 0 782.352 0 504C0 225.648 225.648 0 504 0C782.352 0 1008 225.648 1008 504Z" fill="#FFAA00" fill-opacity="0.8"/>
</g>
</g>
<defs>
<clipPath id="clip0_4_725">
<rect width="1008" height="1008" rx="504" fill="white"/>
</clipPath>
</defs>
</svg>
